<svg xmlns="http://www.w3.org/2000/svg" viewBox="0 0 14.78 19"><defs><style>.cls-1{fill:#333;}</style></defs><title>ic_bell</title><g id="レイヤー_2" data-name="レイヤー 2"><g id="レイヤー_1-2" data-name="レイヤー 1"><path class="cls-1" d="M7.39,19h0A2.41,2.41,0,0,1,5,16.59H9.79A2.41,2.41,0,0,1,7.39,19Z"/><path class="cls-1" d="M13.64,12l-.31-.18c-1-.66-.86-3.22-.72-4.15a5.21,5.21,0,0,0-3.76-5,1.74,1.74,0,1,0-2.91,0A5.24,5.24,0,0,0,2.18,7.76c.13.85.27,3.41-.72,4.06L1.13,12A1.71,1.71,0,0,0,0,13.5a1.77,1.77,0,0,0,1.77,1.77H13a1.77,1.77,0,0,0,1.77-1.77A1.71,1.71,0,0,0,13.64,12Z"/></g></g></svg>