<svg xmlns="http://www.w3.org/2000/svg" viewBox="0 0 49.45 9.55" enable-background="new 0 0 49.45 9.55"><style type="text/css">.st0{fill:#3947FF;}</style><path class="st0" d="M11.1 4.74c-.27 0-.41-.23-.41-.59s.14-.56.41-.56h8.7c.25 0 .39.21.39.56s-.14.59-.39.59h-4.3v3.76c.031-.15.131-.276.27-.34.24-.11.48-.24.71-.37-.201-.204-.391-.417-.57-.64-.073-.087-.112-.197-.11-.31-.005-.161.07-.315.2-.41.126-.09.269-.155.42-.19h-.3c-.29 0-.47-.27-.47-.61s.18-.61.47-.61h2.67c.65 0 1 .36 1 .86-.012.299-.105.59-.27.84-.225.356-.483.691-.77 1 .325.134.659.245 1 .33.247.045.419.27.4.52-.001.122-.021.244-.06.36-.077.29-.34.491-.64.49h-.24c-.545-.161-1.066-.393-1.55-.69-.332.241-.687.449-1.06.62-.141.08-.298.124-.46.13-.236-.007-.449-.146-.55-.36l-.09-.25v.13c0 .37-.24.53-.74.53s-.71-.16-.71-.53v-.34c-.875.171-1.76.284-2.65.34h-.07c-.331.017-.613-.238-.63-.569v-.201c0-.37.16-.55.51-.57h.24v-2.92h-.35zm8.29-2.37c0 .62-.3.94-1.15.94h-5.61c-.85 0-1.15-.32-1.15-.94v-1.22c0-.62.3-.94 1.15-.94h5.61c.85 0 1.15.32 1.15.94v1.22zm-6.51 2.7h1.17v-.33h-1.17v.33zm0 1.2h1.17v-.35h-1.17v.35zm0 1.31h.37l.8-.1v-.37h-1.17v.47zm5-6.3c0-.11 0-.14-.15-.14h-4.6c-.12 0-.15 0-.15.14v.16h4.91l-.01-.16zm-4.88 1.06c0 .11 0 .14.15.14h4.61c.12 0 .15 0 .15-.14v-.17h-4.91v.17zm3.73 3.9c.106.021.201.077.27.16.172.216.363.417.57.6.156-.148.3-.309.43-.48.05-.048.082-.111.09-.18 0-.07-.07-.1-.19-.1h-1.17zm7.06-4.76c.449-.061.862.254.923.702l.007.128c-.009.218-.06.432-.15.63-.223.499-.505.969-.84 1.4l.23.24c.184-.213.345-.444.48-.69.081-.158.243-.258.42-.26.132.004.26.046.37.12.158.082.261.242.27.42-.006.107-.04.211-.1.3-.174.277-.367.541-.58.79h.06c.142.091.226.251.22.42-.005.178-.06.352-.16.5-.108.188-.304.308-.52.32-.111-.001-.219-.036-.31-.1-.218-.17-.425-.354-.62-.55v3c0 .33-.29.51-.75.51s-.74-.14-.74-.47v-2.88.11c-.162.131-.362.208-.57.22-.221-.005-.426-.116-.55-.3-.126-.153-.2-.342-.21-.54.001-.204.107-.393.28-.5.788-.508 1.468-1.168 2-1.94l.05-.06c0-.05-.05-.07-.16-.07h-1.5c-.35 0-.54-.28-.54-.71s.19-.69.54-.69h.72v-1c0-.33.28-.51.74-.51s.76.18.76.51v1l.23-.05zm3.67.52c0 3.57-.44 5.16-1.91 6.85-.163.19-.4.299-.65.3-.237 0-.466-.089-.64-.25-.16-.134-.255-.331-.26-.54.006-.208.092-.405.24-.55 1.27-1.36 1.69-2.5 1.76-5.81h-.72c-.35 0-.54-.29-.54-.72s.19-.72.54-.72h3.39c.82.03 1.33.44 1.33 1.29.027 1.975-.076 3.949-.31 5.91-.018.806-.685 1.445-1.491 1.428l-.199-.018c-.336.015-.672-.016-1-.09-.323-.046-.554-.335-.53-.66v-.21c.07-.41.3-.6.58-.6h.12c.195.035.392.055.59.06.28 0 .34-.07.4-.44.2-1.612.29-3.236.27-4.86 0-.29-.06-.35-.35-.35l-.62-.02zm7.81.12c1.43 0 2.12.88 2.12 2.66.002.875-.095 1.747-.29 2.6-.135 1.041-1.052 1.801-2.1 1.74-.412.001-.822-.07-1.21-.21-.301-.119-.494-.416-.48-.74-.013-.11-.013-.22 0-.33.063-.324.35-.556.68-.55.089-.014.181-.014.27 0 .182.05.371.073.56.07.27 0 .46-.17.56-.53.182-.77.269-1.559.26-2.35 0-.69-.23-.88-.78-.88-.18-.011-.36-.011-.54 0-.445 1.727-1.068 3.402-1.86 5-.147.29-.445.471-.77.47-.133 0-.265-.023-.39-.07-.287-.141-.472-.43-.48-.75.005-.177.057-.35.15-.5.699-1.267 1.252-2.609 1.65-4l-1 .11h-.1c-.372.006-.679-.288-.69-.66v-.14c-.046-.384.228-.732.612-.778l.018-.002c.47-.06 1-.1 1.57-.14.1-.47.18-1 .24-1.38.035-.413.398-.719.81-.684l.04.004h.15c.398-.009.727.307.735.704l-.005.106v.11c-.06.36-.17.78-.24 1.08l.51.04zm1.78-.12c.009-.3.199-.565.48-.67.126-.057.262-.088.4-.09.272.001.526.136.68.36.786 1.097 1.341 2.342 1.63 3.66v.22c.023.342-.186.658-.51.77-.125.047-.257.071-.39.07-.336.029-.642-.192-.72-.52-.286-1.206-.78-2.353-1.46-3.39-.078-.122-.116-.265-.11-.41zm8.31 5.6c1.46 0 2.27-.54 2.27-1.3s-.42-1.13-1.46-1.13c-1.081.008-2.12.422-2.91 1.16-.225.25-.544.395-.88.4h-.27c-.411-.052-.702-.427-.65-.838v-.152c.083-.99.24-1.973.47-2.94.056-.388.398-.67.79-.65h.15c.46 0 .7.28.7.64v.22c-.12.56-.22 1.1-.3 1.59.899-.636 1.969-.985 3.07-1 1.92 0 3.14 1.11 3.14 2.74s-1.32 3-4.17 3c-.81.01-1.618-.091-2.4-.3-.38-.077-.653-.412-.65-.8v-.28c.054-.367.369-.639.74-.64.089-.015.181-.015.27 0 .682.179 1.384.273 2.09.28zm-2-5.83c-.348-.09-.586-.411-.57-.77.002-.105.019-.21.05-.31.067-.344.369-.592.72-.59h.22c1.197.261 2.41.448 3.63.56.409-.001.741.329.742.738l-.002.062v.11c-.011.453-.386.811-.839.801l-.021-.001h-.07c-1.305-.09-2.599-.291-3.87-.6h.01zm-37.77 2.34l-4.66-2c-.207-.087-.443-.064-.63.06-.188.12-.301.327-.3.55v4c-.001.223.112.43.3.55.108.075.238.114.37.11.086.018.174.018.26 0l4.66-2c.265-.108.431-.374.41-.66-.003-.267-.164-.506-.41-.61z"/></svg>