<svg xmlns="http://www.w3.org/2000/svg" viewBox="0 0 108.64 13.35"><defs><style>.cls-1{fill:#3947ff;}</style></defs><title>link_farm_hover</title><g id="レイヤー_2" data-name="レイヤー 2"><g id="レイヤー_1-2" data-name="レイヤー 1"><path class="cls-1" d="M26.57,1.29h-8c-.62,0-1,.53-1,1.23s.38,1.25,1,1.25h7.12c.38,0,.53.11.53.42a.89.89,0,0,1,0,.18c-.41,2.67-2.68,5-5.94,5.87a1.14,1.14,0,0,0-.91,1.16,1.81,1.81,0,0,0,.08.53,1.17,1.17,0,0,0,1.21.84,2.18,2.18,0,0,0,.5-.07A10.48,10.48,0,0,0,29,4a4.46,4.46,0,0,0,0-.6A2.18,2.18,0,0,0,28.56,2,2.25,2.25,0,0,0,26.57,1.29Z"/><path class="cls-1" d="M40.38,3.59H33.09c-.48,0-.78.46-.78,1.07s.32,1.06.77,1.06h6.43c.13,0,.21,0,.21.13a.3.3,0,0,1-.07.18A2.75,2.75,0,0,1,38.6,7a.91.91,0,0,0-.45.81,1.13,1.13,0,0,0,.15.56,1.09,1.09,0,0,0,.94.57,1.13,1.13,0,0,0,.52-.13,5.38,5.38,0,0,0,2.3-2.69,2.83,2.83,0,0,0,.2-1,1.47,1.47,0,0,0-.29-1A1.81,1.81,0,0,0,40.38,3.59Z"/><path class="cls-1" d="M36.61,6.33a1,1,0,0,0-1.08,1,4.72,4.72,0,0,1-.43,2.17A3.56,3.56,0,0,1,33.4,11a1,1,0,0,0-.56.91,1.32,1.32,0,0,0,.18.67,1,1,0,0,0,.92.53,1.47,1.47,0,0,0,.57-.13,5.28,5.28,0,0,0,2.56-2.46,7.47,7.47,0,0,0,.7-3.21C37.8,6.65,37.34,6.33,36.61,6.33Z"/><path class="cls-1" d="M53.84,5.52H45.91c-.56,0-.85.53-.85,1.3s.29,1.3.85,1.3h7.93c.56,0,.85-.53.85-1.3S54.4,5.52,53.84,5.52Z"/><path class="cls-1" d="M66.28,5.18a1.27,1.27,0,0,0-1.11-.69,1.61,1.61,0,0,0-.55.1,1,1,0,0,0-.67,1,1.13,1.13,0,0,0,.14.55,30.1,30.1,0,0,1,1.37,3,46.89,46.89,0,0,1-5,.63,48.34,48.34,0,0,0,2.69-7.83,1.52,1.52,0,0,0,0-.35A1.15,1.15,0,0,0,62.16.38l-.36,0a1.11,1.11,0,0,0-1.18,1,54.74,54.74,0,0,1-2.9,8.57l-.77,0c-.56,0-.91.5-.91,1.19v.15a1.15,1.15,0,0,0,1.22,1.16h.1a57.2,57.2,0,0,0,8.92-1.15l.28.67a1.08,1.08,0,0,0,1,.6,1.73,1.73,0,0,0,.58-.11,1.15,1.15,0,0,0,.8-1.16,2,2,0,0,0-.14-.74A36.41,36.41,0,0,0,66.28,5.18Z"/><path class="cls-1" d="M75.91,4.48c.39,0,.81,0,1.27,0a35,35,0,0,0,4.12-.24,1.12,1.12,0,0,0,1-1.19.81.81,0,0,0,0-.18c-.06-.63-.38-1.09-1.06-1.09H81A38.24,38.24,0,0,1,77,2H75.89a1.12,1.12,0,0,0-1.18,1.22A1.12,1.12,0,0,0,75.91,4.48Z"/><path class="cls-1" d="M81.75,9.47l-.27,0a15.51,15.51,0,0,1-3,.31c-1.37,0-1.82-.25-1.82-.84A1.46,1.46,0,0,1,77,8.11a.86.86,0,0,0,.22-.59,1,1,0,0,0-.46-.81,1.17,1.17,0,0,0-.63-.18,1.24,1.24,0,0,0-.92.42,3.52,3.52,0,0,0-.88,2.27,2.46,2.46,0,0,0,1.39,2.44,7,7,0,0,0,3,.53,15,15,0,0,0,3.22-.32,1.12,1.12,0,0,0,.9-1.16,2.18,2.18,0,0,0,0-.28A1,1,0,0,0,81.75,9.47Z"/><path class="cls-1" d="M72.9.42l-.29,0a1,1,0,0,0-1.08.77,29.27,29.27,0,0,0-.73,6.18A28.21,28.21,0,0,0,71.16,12a1.08,1.08,0,0,0,1.11,1,1.41,1.41,0,0,0,.34,0,1.07,1.07,0,0,0,1-1.11,3.11,3.11,0,0,0,0-.34,28.34,28.34,0,0,1-.36-4.29,31.83,31.83,0,0,1,.64-5.6,2,2,0,0,0,0-.27C73.89.83,73.51.52,72.9.42Z"/><path class="cls-1" d="M85.09,4.17A1.16,1.16,0,0,0,85.68,4,13.1,13.1,0,0,0,88.37,1.6.88.88,0,0,0,88.59,1a1,1,0,0,0-.45-.8,1.18,1.18,0,0,0-.7-.22.87.87,0,0,0-.69.29,11.22,11.22,0,0,1-2.3,2,.91.91,0,0,0-.41.76,1.31,1.31,0,0,0,.21.69A1,1,0,0,0,85.09,4.17Z"/><path class="cls-1" d="M89.89,2.63h6c.49,0,.77-.43.77-1.05s-.28-1-.77-1h-6c-.5,0-.77.42-.77,1S89.39,2.63,89.89,2.63Z"/><path class="cls-1" d="M88.23,3.52a1.28,1.28,0,0,0-.69-.22.86.86,0,0,0-.74.45,10.9,10.9,0,0,1-2.58,2.68.93.93,0,0,0-.39.74,1.23,1.23,0,0,0,.24.69.92.92,0,0,0,.73.45,1.14,1.14,0,0,0,.6-.2L85.5,8v4.58c0,.48.42.74,1.09.74s1.09-.27,1.09-.74V5.93a12.4,12.4,0,0,0,.8-1.08,1.05,1.05,0,0,0,.18-.57A.9.9,0,0,0,88.23,3.52Z"/><path class="cls-1" d="M96.41,4.26H89.5c-.5,0-.77.42-.77,1s.27,1,.77,1h3.19v4.41c0,.34-.1.42-.36.42a7.39,7.39,0,0,1-1-.08h-.15a.87.87,0,0,0-.84.9.54.54,0,0,0,0,.15,1,1,0,0,0,.73,1,12.3,12.3,0,0,0,1.56.08c1.58,0,2.4-.59,2.4-1.95V6.32h1.46c.49,0,.77-.43.77-1S96.9,4.26,96.41,4.26Z"/><path class="cls-1" d="M108.29,10.81a31,31,0,0,0-5.21-3.88c-.35-.2-.46-.31-.46-.48s.07-.31.46-.53a29.52,29.52,0,0,0,5-3.6,1.15,1.15,0,0,0,.39-.84A1.09,1.09,0,0,0,108,.62a1.61,1.61,0,0,0-1-.39,1,1,0,0,0-.74.28,28.93,28.93,0,0,1-5.39,3.88,2.24,2.24,0,0,0-1.23,2A2.35,2.35,0,0,0,101,8.5a39.21,39.21,0,0,1,5.53,4.26,1.2,1.2,0,0,0,.83.34,1.28,1.28,0,0,0,1-.46,1.52,1.52,0,0,0,.35-1A1.09,1.09,0,0,0,108.29,10.81Z"/><path class="cls-1" d="M8.39,5.94l-7-3A1,1,0,0,0,.45,3,1,1,0,0,0,0,3.86v6a1,1,0,0,0,1,1,1,1,0,0,0,.39-.08l7-3a1,1,0,0,0,0-1.84Z"/></g></g></svg>