<svg xmlns="http://www.w3.org/2000/svg" viewBox="0 0 98 14" enable-background="new 0 0 98 14"><style type="text/css">.st0{fill:#3947FF;}</style><title>link_first_episode</title><g id="レイヤー_1-2"><path class="st0" d="M20.67 3.46c0-.21-.09-.35-.31-.35l-1.36.05c-.71 0-1.11-.65-1.13-1.37-.089-.67.38-1.287 1.05-1.38l2.58-.06h.13c1.5 0 2 .48 2 2.07v9.5c0 .7-.52 1.15-1.47 1.15s-1.47-.45-1.47-1.15l-.02-8.46zM29.39 4.2c-.45 0-.69-.33-.69-.89s.24-.9.69-.9h4.12c.43 0 .67.32.67.88s-.24.91-.67.91h-4.12zm4.48 7.68c0 .8-.42 1.16-1.3 1.16h-2.19c-.88 0-1.3-.36-1.3-1.16v-2.05c0-.79.42-1.16 1.3-1.16h2.19c.88 0 1.3.37 1.3 1.16v2.05zm-4.13-5.67c-.39 0-.59-.3-.59-.79s.2-.78.59-.78h3.53c.38 0 .57.29.57.77s-.19.8-.57.8h-3.53zm0 2c-.39 0-.59-.29-.59-.78s.2-.79.59-.79h3.53c.38 0 .57.3.57.77s-.19.8-.57.8h-3.53zm.05-6.21c-.37 0-.62-.28-.62-.83s.25-.81.62-.81h3.51c.38 0 .63.29.63.81s-.25.83-.63.83h-3.51zm2.21 8.46c0-.19 0-.23-.26-.23h-.46c-.21 0-.25 0-.25.23v.62c0 .21 0 .27.25.27h.46c.21 0 .26-.06.26-.27v-.62zm4.86-7.71l-1.49.12h-.1c-.481.066-.926-.27-.992-.752l-.008-.138v-.15c-.011-.447.342-.819.79-.83h.03c1.75-.115 3.484-.417 5.17-.9.103-.014.207-.014.31 0 .407-.001.767.262.89.65.057.143.087.296.09.45.011.358-.212.682-.55.8-.6.17-1.3.32-2 .46v1.45h2.24c.49 0 .76.36.76 1s-.27 1-.76 1h-2.31v1.26h.73c1.22 0 1.75.39 1.75 1.61v2.66c0 1.22-.53 1.61-1.75 1.61h-3.51c-1.19 0-1.7-.39-1.7-1.61v-2.66c0-1.22.51-1.61 1.7-1.61h.68v-1.29h-2c-.49 0-.75-.38-.75-1s.26-1 .75-1h2l.03-1.13zm2.43 6.86c0-.39 0-.49-.47-.49h-1.82c-.41 0-.46.1-.46.49v.91c0 .41.05.5.46.5h1.78c.42 0 .47-.09.47-.5l.04-.91zM54.64 11c0 1.47-.62 1.93-2.3 1.93h-6.16c-1.63 0-2.26-.47-2.26-2v-8.52c0-1.51.63-2 2.26-2h6.16c1.68 0 2.3.46 2.3 1.93v8.66zm-2.23-8c0-.45 0-.53-.52-.53h-5.22c-.46 0-.52.08-.52.53v.93h6.26v-.93zm0 2.91h-6.26v1.46h6.26v-1.46zm-6.26 4.45c0 .44.06.53.52.53h5.22c.48 0 .52-.09.52-.53v-1h-6.26v1zM61.27 4.82c.507-.292 1.086-.434 1.67-.41.937-.079 1.789.544 2 1.46.84-.28 1.74-.56 2.57-.79.159-.047.324-.074.49-.08.483-.01.904.327 1 .8.044.122.065.251.06.38.009.486-.333.908-.81 1-.9.25-2 .5-3 .84v1.38c0 .7-.45 1-1.15 1.05s-1-.36-1-1v-.8c-1.34.44-1.81 1-1.81 1.45s.45.81 1.94.81c1.264.025 2.527-.079 3.77-.31h.35c.512-.04.959.343.999.855l.001.015v.28c.014.546-.388 1.013-.93 1.08-1.293.26-2.611.381-3.93.36-3.07 0-4.59-.89-4.59-2.76 0-1.58 1.25-2.77 4-3.74 0-.3-.18-.46-.58-.46-1 0-2.35.81-3.75 2.2-.456.48-1.216.5-1.696.044l-.044-.044c-.215-.209-.331-.5-.32-.8-.004-.352.146-.687.41-.92.948-.863 1.812-1.814 2.58-2.84h-1.79c-.552.001-1.001-.445-1.002-.998l.002-.072v-.1c-.001-.552.446-1.001.999-1.001l.051.001h2.79c.11-.25.22-.5.31-.76.16-.486.63-.799 1.14-.76h.31c.6.08.92.43.92.85-.001.149-.035.296-.1.43l-.05.12c.81-.06 1.86-.17 3-.31h.19c.48-.017.883.359.9.839v.271c.066.482-.269.928-.75 1-1.463.232-2.939.376-4.42.43-.233.349-.486.683-.76 1l.03.01zM71 4.27c-.46 0-.7-.36-.7-.92s.24-.9.7-.9h3.7c.44 0 .68.34.68.88s-.24.94-.68.94h-3.7zm6.22 3.73c.208-.115.443-.17.68-.16.65 0 1 .27 1 .73.111 1.796-.704 3.523-2.16 4.58-.187.132-.411.202-.64.2-.329.002-.64-.149-.84-.41-.123-.16-.199-.35-.22-.55-.16.51-.58.73-1.28.73h-1.76c-1 0-1.37-.42-1.37-1.37v-1.75c0-.85.42-1.22 1.37-1.22h1.78c.95 0 1.37.37 1.37 1.22v1.95c.076-.158.186-.297.32-.41.959-.617 1.513-1.701 1.45-2.84-.207.105-.438.154-.67.14-.6 0-1-.2-1-.67v-1.17c0-1 .42-1.29 1.42-1.29h5.49c1 0 1.41.32 1.41 1.29v1.24c0 .47-.42.67-1 .67s-1-.21-1-.56v-.66c0-.18 0-.22-.29-.22h-3.77c-.27 0-.29 0-.29.22v.31zm-5.94.28c-.4 0-.59-.3-.59-.79s.19-.78.59-.78h3.18c.38 0 .57.31.57.77s-.19.8-.57.8h-3.18zm0-2c-.39 0-.59-.31-.59-.8s.2-.77.59-.77h3.18c.38 0 .57.29.57.76s-.19.81-.57.81h-3.18zm.14-4.28c-.38 0-.63-.28-.63-.82s.25-.82.63-.82h3.07c.37 0 .63.3.63.82s-.26.82-.63.82h-3.07zm1.87 8.49c0-.17 0-.21-.25-.21h-.33c-.2 0-.24 0-.24.21v.72c0 .21 0 .26.24.26h.29c.21 0 .25-.05.25-.26l.04-.72zm9.19-7c.42 0 .65.31.65.82s-.23.89-.65.89h-6.17c-.42 0-.65-.32-.65-.86s.23-.85.65-.85h2.06v-.65h-2.27c-.44 0-.68-.37-.68-.92s.24-.9.68-.9h2.27v-.31c0-.4.39-.63 1-.63s1 .23 1 .63v.29h2.63c.45 0 .69.34.69.89s-.24.93-.69.93h-2.5v.65l1.98.02zm-3.22 5.11c0-.45.37-.73 1-.73s1 .28 1 .73v2.4c0 .21.07.24.28.24s.35-.06.38-.21v-.68s.3-.53.79-.53h.12c.58.06.86.31.86.74.045.689-.09 1.378-.39 2-.3.35-.77.6-2.09.6-1.51 0-2-.37-2-1.3l.05-3.26zM87.69 3.88h-1.89c-.62 0-1-.42-1-1.11-.044-.506.33-.952.836-.997l.054-.003h2v-.65c.02-.74.31-1.12 1.13-1.12s1.18.42 1.18 1v.63l1.74-.14h.14c.496-.025.919.357.945.853l-.005.147v.17c.061.488-.285.932-.773.993l-.117.007c-.61.06-1.28.11-2 .16v1.56c.318.478.465 1.048.42 1.62.009.723-.227 1.428-.67 2-.335.348-.543.799-.59 1.28 0 .43.5.7 1.9.7.826.018 1.649-.111 2.43-.38.445-.133.755-.536.77-1-.031-.47-.146-.931-.34-1.36-.054-.126-.081-.263-.08-.4.035-.483.379-.888.85-1 .129-.018.261-.018.39 0 .541.01 1.017.358 1.19.87.316.708.48 1.475.48 2.25.084 1.083-.503 2.106-1.48 2.58-1.334.585-2.786.849-4.24.77-2.8 0-4.13-.67-4.13-2.14.001-.184.031-.366.09-.54-1.43 0-2.23-1.08-2.23-2.62-.162-1.649 1.043-3.117 2.692-3.279l.148-.011h.14l.02-.84zm-.91 3.75c0 .52.25.75.57.75.55 0 .86-.51.86-1.12s-.2-.76-.59-.76-.84.43-.84 1.13zm6.45-5.15c.011-.291.133-.566.34-.77.229-.264.561-.417.91-.42.249.002.492.075.7.21.84.594 1.585 1.312 2.21 2.13.176.237.274.524.28.82.007.314-.12.616-.35.83-.222.227-.523.36-.84.37-.348-.004-.673-.17-.88-.45-.6-.715-1.27-1.368-2-1.95-.232-.188-.368-.471-.37-.77zM8.39 6.34l-7-3c-.307-.132-.66-.102-.94.08-.282.186-.452.502-.45.84v6c.002.335.171.646.45.83.163.109.354.168.55.17.134 0 .267-.027.39-.08l7-3c.508-.216.745-.804.528-1.312-.101-.238-.29-.427-.528-.528z"/></g></svg>