<svg xmlns="http://www.w3.org/2000/svg" viewBox="0 0 99.95 13.53" enable-background="new 0 0 99.95 13.53"><style type="text/css">.st0{fill:#3947ff;}</style><path class="st0" d="M17.2 6.78c-.38 0-.57-.32-.57-.83s.19-.78.57-.78h12.19c.35 0 .54.29.54.78s-.19.83-.54.83h-6v5.28c.035-.214.174-.397.37-.49.34-.15.68-.34 1-.52-.28-.29-.56-.59-.8-.89-.101-.124-.154-.28-.15-.44.002-.232.123-.447.32-.57.176-.13.377-.222.59-.27h-.42c-.41 0-.66-.38-.66-.85s.25-.86.66-.86h3.7c.91 0 1.37.51 1.37 1.21-.015.416-.143.821-.37 1.17-.309.517-.667 1.003-1.07 1.45.451.188.916.341 1.39.46.351.07.592.394.56.75-.003.167-.034.333-.09.49-.107.406-.47.692-.89.7-.116 0-.231-.02-.34-.06-.764-.237-1.493-.573-2.17-1-.466.337-.961.631-1.48.88-.202.103-.424.161-.65.17-.329-.005-.626-.194-.77-.49-.056-.11-.097-.228-.12-.35v.24c0 .52-.34.74-1 .74s-1-.22-1-.74v-.52c-1.224.263-2.463.446-3.71.55h-.1c-.469.017-.863-.35-.88-.819v-.281c0-.51.22-.77.71-.79h.34v-4.15h-.53zm11.61-3.32c0 .87-.42 1.32-1.61 1.32h-7.85c-1.2 0-1.62-.45-1.62-1.32v-1.71c0-.87.42-1.32 1.62-1.32h7.85c1.19 0 1.61.45 1.61 1.32v1.71zm-9.11 3.78h1.63v-.46h-1.63v.46zm0 1.68h1.63v-.49h-1.63v.49zm0 1.84l.51-.07 1.12-.14v-.45h-1.63v.66zm7-8.83c0-.15 0-.19-.21-.19h-6.49c-.16 0-.2 0-.2.19v.23h6.87l.03-.23zm-6.86 1.49c0 .15 0 .19.2.19h6.46c.17 0 .21 0 .21-.19v-.24h-6.87v.24zm5.22 5.46c.147.031.28.108.38.22.241.307.508.591.8.85.222-.21.426-.437.61-.68.084-.066.138-.164.15-.27 0-.1-.1-.14-.27-.14l-1.67.02zm14.88-2.56c.054 2.272-.454 4.522-1.48 6.55-.195.334-.553.54-.94.54-.229 0-.452-.07-.64-.2-.329-.185-.535-.532-.54-.91-.004-.223.066-.441.2-.62.165-.218.319-.445.46-.68-.145.214-.382.348-.64.36-.185-.007-.361-.078-.5-.2-.291-.258-.529-.571-.7-.92.094.363.141.736.14 1.11v1.45c0 .44-.42.7-1.06.7s-1-.26-1-.7v-.8c-.001-.4.043-.799.13-1.19-.356.612-.82 1.154-1.37 1.6-.166.139-.374.217-.59.22-.297-.014-.569-.17-.73-.42-.167-.199-.259-.45-.26-.71-.004-.298.133-.58.37-.76.694-.562 1.286-1.238 1.75-2h-1.3c-.47 0-.74-.38-.74-1s.27-1 .74-1h1.92v-.55h-1.93c-.48 0-.73-.39-.73-1s.25-1 .73-1h.77c-.071-.405-.178-.804-.32-1.19h-.21c-.48 0-.73-.38-.73-1s.25-1 .73-1h1.74v-.29c0-.46.43-.71 1.12-.71s1.13.25 1.13.71v.38h1.39c.44 0 .73.37.73 1s-.29 1-.73 1c-.1.39-.21.78-.35 1.18h.35c.47 0 .73.37.73 1s-.26 1-.73 1h-1.59v.62h1.53c.48 0 .74.35.74 1s-.26 1-.74 1h-.91c.268.26.559.494.87.7.271.178.438.476.45.8v.24c.522-1.671.745-3.421.66-5.17v-2.88c-.09-.779.469-1.483 1.248-1.573l.082-.007c1.085-.142 2.156-.38 3.2-.71.106-.038.217-.059.33-.06.454-.021.864.267 1 .7.065.162.099.335.1.51.017.382-.225.727-.59.84-.937.283-1.897.48-2.87.59-.36.06-.36.13-.36.51v.89h3.37c.48 0 .76.41.76 1s-.28 1-.76 1h-.6v6.27c0 .49-.38.82-1 .82s-1-.33-1-.82v-6.22h-.83zm-5.38-2.1c.142-.396.246-.804.31-1.22h-1.27c.119.387.213.781.28 1.18l.68.04zm10.82.07c-.44 0-.68-.34-.68-.9s.24-.9.68-.9h4.12c.44 0 .67.33.67.89s-.23.91-.67.91h-4.12zm4.49 7.71c0 .8-.42 1.16-1.31 1.16h-2.18c-.88 0-1.3-.36-1.3-1.16v-2c0-.8.42-1.17 1.3-1.17h2.18c.89 0 1.31.37 1.31 1.17v2zm-4.14-5.71c-.39 0-.58-.29-.58-.79s.19-.78.58-.78h3.53c.38 0 .58.29.58.77s-.2.8-.58.8h-3.53zm0 2c-.39 0-.58-.3-.58-.79s.19-.78.58-.78h3.53c.38 0 .58.29.58.77s-.2.8-.58.8h-3.53zm.06-6.24c-.38 0-.63-.28-.63-.82s.25-.82.63-.82h3.5c.38 0 .63.3.63.82s-.25.82-.63.82h-3.5zm2.21 8.5c0-.2 0-.24-.25-.24h-.46c-.21 0-.26 0-.26.24v.61c0 .21 0 .27.26.27h.46c.21 0 .25-.06.25-.27v-.61zm4.86-7.72c-.52.06-1 .1-1.48.13h-.1c-.488.061-.932-.285-.993-.773l-.007-.127v-.14c-.066-.437.234-.845.671-.911l.129-.009c1.748-.088 3.481-.363 5.17-.82.103-.013.207-.013.31 0 .406.017.762.277.9.66.05.145.077.297.08.45.021.372-.214.71-.57.82-.6.17-1.3.33-2 .47v1.42h2.24c.49 0 .76.37.76 1s-.27 1-.76 1h-2.29v1.26h.73c1.22 0 1.75.39 1.75 1.61v2.66c0 1.22-.53 1.61-1.75 1.61h-3.5c-1.19 0-1.71-.39-1.71-1.61v-2.66c0-1.22.52-1.61 1.71-1.61h.67v-1.26h-2c-.49 0-.76-.38-.76-1s.27-1 .76-1h2l.04-1.17zm2.44 6.86c0-.39-.06-.49-.48-.49h-1.82c-.4 0-.46.1-.46.49v.91c0 .41.06.51.46.51h1.78c.42 0 .48-.1.48-.51l.04-.91zm8.52-4.79c.508-.286 1.087-.425 1.67-.4.936-.088 1.793.532 2 1.45.84-.28 1.74-.56 2.58-.78.147-.04.298-.064.45-.07.483-.01.904.327 1 .8.02.126.02.254 0 .38.009.486-.333.908-.81 1-.89.25-2 .5-3 .84v1.39c0 .7-.45 1-1.15 1.05s-1-.37-1-1v-.76c-1.35.43-1.81.95-1.81 1.44s.45.81 1.93.81c1.266.008 2.529-.113 3.77-.36.116-.014.234-.014.35 0 .512-.04.96.343 1 .855v.285c.03.498-.311.941-.8 1.04-1.296.264-2.617.388-3.94.37-3.06 0-4.59-.9-4.59-2.76 0-1.59 1.26-2.78 4-3.74 0-.31-.18-.46-.57-.46-1 0-2.35.81-3.76 2.19-.222.243-.531.387-.86.4-.327-.006-.639-.138-.87-.37-.249-.193-.399-.486-.41-.8-.005-.35.141-.685.4-.92.975-.838 1.866-1.769 2.66-2.78h-1.79c-.552.002-1.001-.445-1.003-.997l.003-.083v-.13c0-.552.448-1 1-1h2.79c.148-.256.282-.519.4-.79.172-.468.633-.765 1.13-.73h.31c.61.09.93.44.93.86 0 .146-.034.29-.1.42l-.06.13c.82-.06 1.87-.17 3-.31h.2c.475-.017.873.355.89.829v.281c.065.486-.275.933-.76 1-1.48.232-2.973.372-4.47.42-.23.348-.48.682-.75 1h.04zm9.47-.54c-.47 0-.7-.37-.7-.93s.23-.89.7-.89h3.71c.45 0 .69.33.69.88s-.24.94-.69.94h-3.71zm6.2 3.75c.216-.098.454-.135.69-.11.64 0 1 .26 1 .72.096 1.789-.726 3.504-2.18 4.55-.194.124-.42.19-.65.19-.329.002-.64-.149-.84-.41-.122-.155-.195-.343-.21-.54-.17.5-.59.73-1.29.73h-1.76c-1 0-1.37-.42-1.37-1.38v-1.8c0-.86.42-1.22 1.37-1.22h1.75c1 0 1.37.36 1.37 1.22v1.94c.078-.157.191-.294.33-.4.965-.607 1.536-1.68 1.5-2.82-.207.104-.438.153-.67.14-.61 0-1-.19-1-.67v-1.15c0-1 .42-1.29 1.41-1.29h5.49c1 0 1.42.33 1.42 1.29v1.22c0 .48-.42.67-1 .67s-1-.21-1-.56v-.66c0-.18 0-.22-.29-.22h-3.77c-.27 0-.3 0-.3.22v.34zm-5.94.28c-.39 0-.59-.29-.59-.78s.2-.79.59-.79h3.18c.38 0 .58.31.58.77s-.2.8-.58.8h-3.18zm0-2c-.4 0-.59-.3-.59-.79s.19-.78.59-.78h3.18c.37 0 .57.3.57.76s-.2.81-.57.81h-3.18zm.12-4.28c-.38 0-.63-.28-.63-.83s.25-.81.63-.81h3.07c.38 0 .63.29.63.81s-.25.83-.63.83h-3.07zm1.88 8.49c0-.17 0-.21-.25-.21h-.3c-.19 0-.24 0-.24.21v.71c0 .21.05.27.24.27h.34c.21 0 .25-.06.25-.27l-.04-.71zm9.19-7c.42 0 .64.31.64.83s-.22.88-.64.88h-6.16c-.42 0-.64-.32-.64-.85s.22-.86.64-.86h2.06v-.67h-2.27c-.43 0-.67-.38-.67-.93s.24-.89.67-.89h2.27v-.31c0-.41.39-.63 1-.63s1 .22 1 .63v.31h2.51c.45 0 .68.33.68.88s-.23.94-.68.94h-2.41v.64l2 .03zm-3.2 5.08c0-.44.36-.72 1-.72s1 .28 1 .72v2.44c0 .21.07.24.28.24s.35-.06.38-.21c.031-.222.051-.446.06-.67 0-.31.29-.53.78-.53h.13c.57.05.85.3.85.74.055.69-.08 1.381-.39 2-.29.35-.77.6-2.09.6-1.51 0-2-.36-2-1.3v-3.31zm8.46-4.68h-1.89s-1-.42-1-1.1c-.039-.512.345-.959.857-.998l.043-.002h2v-.69c-.01-.75.23-1.13 1.09-1.13s1.16.42 1.16 1v.63c.62 0 1.2-.08 1.74-.14h.14c.491-.026.91.351.936.842l-.006.158v.17c.055.494-.3.939-.794.994l-.106.006c-.6 0-1.27.11-2 .15v1.58c.318.47.466 1.034.42 1.6.008.723-.228 1.428-.67 2-.336.344-.544.792-.59 1.27 0 .44.51.7 1.91.7.822.02 1.641-.105 2.42-.37.443-.136.752-.537.77-1-.032-.47-.147-.93-.34-1.36-.06-.142-.091-.295-.09-.45.017-.501.364-.929.85-1.05.13-.038.265-.058.4-.06.54.012 1.014.36 1.19.87.34.707.531 1.476.56 2.26.089 1.081-.501 2.104-1.48 2.57-1.329.589-2.779.853-4.23.77-2.8 0-4.13-.67-4.13-2.14-.003-.18.024-.359.08-.53-1.48 0-2.24-1.08-2.24-2.62-.162-1.649 1.044-3.117 2.693-3.279l.157-.011h.15v-.64zm-.91 3.76c0 .52.25.74.57.74.55 0 .86-.5.86-1.12s-.2-.76-.59-.76-.88.38-.88 1.1l.04.04zm6.46-5.16c.009-.289.127-.564.33-.77.233-.259.562-.411.91-.42.252.003.497.076.71.21.836.6 1.58 1.317 2.21 2.13.172.243.27.532.28.83.005.313-.122.615-.35.83-.223.224-.524.353-.84.36-.348-.002-.674-.169-.88-.45-.605-.71-1.275-1.363-2-1.95-.268-.18-.423-.487-.41-.81l.04.04zm-87.16 3.4l-7-3c-.307-.132-.66-.102-.94.08-.308.201-.48.554-.45.92v6c.002.335.171.646.45.83.163.109.354.168.55.17.134 0 .267-.027.39-.08l7-3c.53-.155.835-.71.68-1.24-.096-.328-.352-.584-.68-.68z"/></svg>