<svg xmlns="http://www.w3.org/2000/svg" viewBox="0 0 81.01 10.56" enable-background="new 0 0 81.01 10.56"><style type="text/css">.st0{fill:#3947FF;}</style><path class="st0" d="M16 5.26c-.29 0-.45-.25-.45-.65s.16-.61.45-.61h9.57c.28 0 .43.23.43.62s-.15.65-.43.65h-4.73v4.14c.036-.169.146-.312.3-.39.268-.121.529-.258.78-.41-.22-.23-.44-.46-.63-.7-.076-.097-.119-.217-.12-.34.002-.185.101-.356.26-.45.137-.101.294-.172.46-.21h-.33c-.32 0-.52-.3-.52-.67s.2-.67.52-.67h2.94c.71 0 1.07.39 1.07.94-.009.331-.109.653-.29.93-.248.399-.532.774-.85 1.12.354.145.719.266 1.09.36.276.055.466.31.44.59-.001.13-.024.258-.07.38-.085.319-.37.543-.7.55-.086.015-.174.015-.26 0-.601-.182-1.176-.441-1.71-.77-.37.263-.761.494-1.17.69-.154.081-.326.126-.5.13-.258-.002-.494-.149-.61-.38l-.1-.28v.17c0 .41-.26.58-.81.58s-.78-.17-.78-.58v-.43c-.962.209-1.938.353-2.92.43h-.07c-.37.017-.683-.27-.699-.639l-.001-.041v-.18c0-.4.18-.6.56-.62h.27v-3.26h-.39zm9.12-2.61c0 .68-.33 1-1.26 1h-6.17c-.94 0-1.27-.36-1.27-1v-1.34c0-.68.33-1 1.27-1h6.17c.93 0 1.26.35 1.26 1v1.34zm-7.12 2.97h1.29v-.36h-1.29v.36zm0 1.32h1.29v-.38h-1.29v.38zm0 1.44l.41-.05.88-.11v-.35h-1.29v.51zm5.51-6.93c0-.12 0-.15-.16-.15h-5.11c-.13 0-.17 0-.17.15v.18h5.4l.04-.18zm-5.4 1.17c0 .12 0 .15.17.15h5.07c.13 0 .16 0 .16-.15v-.19h-5.4v.19zm4.11 4.29c.113.021.216.082.29.17.189.242.4.466.63.67.173-.164.334-.341.48-.53.055-.053.09-.124.1-.2 0-.08-.07-.11-.21-.11h-1.29zm7.78-5.24c.494-.055.939.3.995.794l.005.126c-.013.239-.071.473-.17.69-.248.546-.557 1.063-.92 1.54.075.094.159.181.25.26.203-.234.38-.489.53-.76.078-.183.252-.306.45-.32.146.004.288.049.41.13.172.09.283.266.29.46-.004.118-.043.233-.11.33-.184.308-.395.599-.63.87h.06c.158.098.25.274.24.46-.005.196-.064.386-.17.55-.12.204-.334.336-.57.35-.125.001-.248-.038-.35-.11-.239-.19-.466-.393-.68-.61.036.369.053.739.05 1.11v2.3c0 .36-.32.56-.83.56s-.85-.2-.85-.56v-3.19l-.12.1c-.181.142-.4.226-.63.24-.242-.004-.467-.127-.6-.33-.141-.169-.221-.38-.23-.6.006-.221.118-.425.3-.55.895-.538 1.67-1.252 2.28-2.1l.06-.12c0-.06-.06-.08-.18-.08h-1.6c-.39 0-.6-.31-.6-.78s.21-.76.6-.76h.79v-1.06c0-.37.31-.57.81-.57s.84.2.84.57v1.06h.28zm4 .61c0 3.93-.48 5.67-2.1 7.53-.177.216-.441.34-.72.34-.26.004-.511-.093-.7-.27-.198-.154-.315-.389-.32-.64.006-.226.099-.441.26-.6 1.44-1.5 1.9-2.75 1.92-6.36h-.79c-.39 0-.6-.32-.6-.79s.21-.8.6-.8h3.73c.95 0 1.47.42 1.47 1.39.03 2.172-.084 4.343-.34 6.5-.026.894-.773 1.598-1.667 1.572l-.153-.012c-.383.015-.766-.018-1.14-.1-.349-.056-.6-.367-.58-.72v-.24c.08-.46.33-.66.64-.66h.13c.215.035.432.055.65.06.31 0 .37-.07.44-.48.211-1.772.302-3.556.27-5.34 0-.32-.06-.38-.38-.38h-.62zm8.59.1c1.57 0 2.33 1 2.33 2.92.004.962-.104 1.922-.32 2.86-.139 1.132-1.12 1.97-2.26 1.93-.458.003-.912-.078-1.34-.24-.341-.139-.552-.483-.52-.85.003-.121.02-.242.05-.36.068-.359.385-.616.75-.61.1-.014.2-.014.3 0 .202.053.411.08.62.08.29 0 .5-.19.61-.59.199-.825.296-1.671.29-2.52 0-.76-.26-1-.86-1-.2-.01-.4-.01-.6 0-.469 1.906-1.14 3.756-2 5.52-.161.322-.491.523-.85.52-.184-.002-.366-.047-.53-.13-.314-.149-.515-.463-.52-.81.001-.201.057-.398.16-.57.771-1.39 1.381-2.863 1.82-4.39l-1.1.13h-.12c-.407 0-.739-.324-.75-.73v-.15c-.057-.416.235-.799.65-.856l.04-.004c.52-.07 1.1-.11 1.73-.16.11-.51.19-1 .26-1.51.08-.413.461-.699.88-.66h.17c.441-.022.817.318.839.759l.001.051v.17c-.06.39-.18.86-.26 1.19l.53.01zm2-.11c.008-.332.218-.625.53-.74.138-.064.288-.098.44-.1.3.005.579.154.75.4.861 1.199 1.47 2.559 1.79 4v.24c.033.379-.199.731-.56.85-.136.055-.283.083-.43.08-.366.026-.699-.214-.79-.57-.311-1.329-.856-2.592-1.61-3.73-.095-.124-.15-.274-.16-.43h.04zm9.32 6.14c1.61 0 2.5-.6 2.5-1.43s-.41-1.25-1.61-1.25c-1.188.006-2.331.46-3.2 1.27-.255.283-.619.443-1 .44h-.3c-.452-.062-.769-.478-.71-.93v-.15c.086-1.092.26-2.176.52-3.24.062-.435.452-.746.89-.71h.16c.51.06.77.31.77.7v.25c-.13.61-.24 1.21-.33 1.75.992-.711 2.18-1.098 3.4-1.11 2.11 0 3.45 1.23 3.45 3s-1.45 3.3-4.63 3.3c-.889.017-1.777-.084-2.64-.3-.418-.09-.715-.462-.71-.89v-.31c.073-.394.42-.677.82-.67.099-.015.201-.015.3 0 .758.191 1.538.285 2.32.28zm-2.21-6.41c-.388-.104-.648-.469-.62-.87.005-.115.026-.23.06-.34.072-.379.404-.652.79-.65h.24c1.32.284 2.656.488 4 .61.447-.002.811.36.813.807l-.003.073v.12c-.01.497-.421.891-.918.881l-.032-.001h-.03c-1.449-.087-2.887-.297-4.3-.63zm8.37 1.36c-.36 0-.55-.29-.55-.73s.19-.7.55-.7h2.93c.35 0 .54.26.54.69s-.19.74-.54.74h-2.93zm4.87 2.94c.168-.083.353-.124.54-.12.51 0 .78.21.78.57.09 1.41-.548 2.768-1.69 3.6-.149.105-.328.161-.51.16-.257 0-.501-.118-.66-.32-.094-.125-.149-.274-.16-.43-.13.39-.46.57-1 .57h-1.4c-.75 0-1.08-.33-1.08-1.08v-1.42c0-.67.33-1 1.08-1h1.4c.74 0 1.07.28 1.07 1v1.53c.056-.137.141-.26.25-.36.751-.478 1.189-1.321 1.15-2.21-.163.085-.347.123-.53.11-.47 0-.76-.15-.76-.53v-.9c0-.76.33-1 1.12-1h4.31c.78 0 1.11.25 1.11 1v1c0 .37-.33.53-.8.53s-.81-.17-.81-.44v-.56c0-.14 0-.18-.23-.18h-3c-.21 0-.23 0-.23.18l.05.3zm-4.66.22c-.31 0-.46-.23-.46-.61s.15-.62.46-.62h2.5c.29 0 .45.24.45.61s-.16.62-.45.62h-2.5zm0-1.58c-.31 0-.46-.24-.46-.63s.15-.6.46-.6h2.5c.29 0 .45.23.45.59s-.16.64-.45.64h-2.5zm.1-3.37c-.3 0-.5-.22-.5-.65s.2-.63.5-.63h2.42c.29 0 .49.23.49.63s-.2.65-.49.65h-2.42zm1.47 6.67c0-.13 0-.16-.2-.16h-.25c-.15 0-.19 0-.19.16v.56c0 .17 0 .21.19.21h.26c.17 0 .2 0 .2-.21l-.01-.56zm7.22-5.5c.33 0 .51.24.51.65s-.18.69-.51.69h-4.84c-.33 0-.51-.25-.51-.67s.18-.67.51-.67h1.62v-.51h-1.79c-.34 0-.52-.29-.52-.72s.18-.71.52-.71h1.79v-.24c0-.32.3-.49.82-.49s.83.17.83.49v.24h2c.36 0 .54.27.54.7s-.18.73-.54.73h-2v.51h1.57zm-2.53 4c0-.35.29-.57.79-.57s.79.22.79.57v1.93c0 .16.06.19.22.19s.28 0 .3-.17v-.53s.23-.41.61-.41h.1c.45 0 .67.24.67.58.037.535-.07 1.07-.31 1.55-.23.28-.6.48-1.64.48s-1.58-.29-1.58-1l.05-2.62zm6.63-3.69h-1.48c-.49 0-.77-.33-.77-.87-.039-.396.251-.748.646-.787l.054-.003h1.57v-.51c0-.58.2-.88.87-.88s.91.33.91.81v.5l1.37-.11h.11c.392-.017.723.286.74.678v.202c.044.384-.231.731-.615.776l-.095.004c-.47 0-1 .09-1.55.12v1.24c.248.371.364.815.33 1.26-.005.551-.191 1.085-.53 1.52-.259.274-.42.625-.46 1 0 .34.4.55 1.5.55.646.014 1.29-.087 1.9-.3.36-.106.608-.435.61-.81-.034-.357-.129-.705-.28-1.03-.04-.095-.06-.197-.06-.3.008-.397.283-.739.67-.83.1-.013.2-.013.3 0 .426.003.804.276.94.68.243.558.369 1.161.37 1.77.077.845-.388 1.647-1.16 2-1.042.467-2.18.676-3.32.61-2.21 0-3.25-.53-3.25-1.68-.002-.143.022-.285.07-.42-1.13 0-1.75-.85-1.75-2.06-.113-1.31.857-2.463 2.167-2.575l.063-.005h.11l.02-.55zm-.71 3c0 .4.19.58.45.58.43 0 .67-.4.67-.88s-.16-.6-.46-.6-.66.3-.66.85v.05zm5.07-4c.008-.229.101-.446.26-.61.163-.246.427-.407.72-.44.195.005.386.064.55.17.657.467 1.24 1.03 1.73 1.67.137.193.211.423.21.66.006.245-.092.481-.27.65-.178.172-.413.271-.66.28-.272-.001-.528-.131-.69-.35-.471-.554-.99-1.066-1.55-1.53-.176-.13-.286-.331-.3-.55v.05zm-69.14 2.33l-7-3c-.307-.132-.66-.102-.94.08-.282.186-.452.502-.45.84v6c.002.335.171.646.45.83.163.109.354.168.55.17.134 0 .267-.027.39-.08l7-3c.508-.216.745-.804.528-1.312-.101-.238-.29-.427-.528-.528z"/></svg>