<svg xmlns="http://www.w3.org/2000/svg" viewBox="0 0 99.9 13.5" enable-background="new 0 0 99.9 13.5"><style type="text/css">.st0{fill:#3947FF;}</style><path class="st0" d="M45.4 4.3c-.4 0-.7-.3-.7-.9s.2-.9.7-.9h4.1c.4 0 .7.3.7.9s-.2.9-.7.9h-4.1zm4.5 7.7c0 .8-.4 1.2-1.3 1.2h-2.2c-.9 0-1.3-.4-1.3-1.2v-2c0-.8.4-1.2 1.3-1.2h2.2c.9 0 1.3.4 1.3 1.2v2zm-4.2-5.7c-.4 0-.6-.3-.6-.8s.2-.8.6-.8h3.5c.4 0 .6.3.6.8s-.2.8-.6.8h-3.5zm0 2c-.4 0-.6-.3-.6-.8s.2-.8.6-.8h3.5c.4 0 .6.3.6.8s-.2.8-.6.8h-3.5zm.1-6.2c-.4 0-.6-.3-.6-.8s.2-.8.6-.8h3.5c.4 0 .6.3.6.8s-.2.8-.6.8h-3.5zm2.2 8.5c0-.2 0-.2-.2-.2h-.5c-.2 0-.3 0-.3.2v.6c0 .2 0 .3.3.3h.5c.2 0 .2-.1.2-.3v-.6zm4.9-7.8c-.5.1-1 .1-1.5.1h-.1c-.5.1-.9-.3-1-.8v-.2c-.1-.4.2-.8.7-.9h.1c1.7-.1 3.5-.4 5.2-.8h.3c.4 0 .8.3.9.7l.1.4c0 .4-.2.7-.6.8-.6.2-1.3.3-2 .5v1.4h2.2c.5 0 .8.4.8 1s-.3 1-.8 1h-2.3v1.3h.7c1.2 0 1.8.4 1.8 1.6v2.7c0 1.2-.5 1.6-1.8 1.6h-3.5c-1.2 0-1.7-.4-1.7-1.6v-2.7c0-1.2.5-1.6 1.7-1.6h.7v-1.3h-2c-.5 0-.8-.4-.8-1s.3-1 .8-1h2l.1-1.2zm2.4 6.9c0-.4-.1-.5-.5-.5h-1.8c-.4 0-.5.1-.5.5v.9c0 .4.1.5.5.5h1.8c.4 0 .5-.1.5-.5v-.9zm8.5-4.8c.5-.3 1.1-.4 1.7-.4.9-.1 1.8.5 2 1.5.8-.3 1.7-.6 2.6-.8l.4-.1c.5 0 .9.3 1 .8v.4c0 .5-.3.9-.8 1-.9.2-2 .5-3 .8v1.4c0 .7-.4 1-1.2 1.1s-1-.4-1-1v-.8c-1.3.4-1.8.9-1.8 1.4s.5.8 1.9.8c1.3 0 2.5-.1 3.8-.4h.3c.5 0 1 .3 1 .9v.3c0 .5-.3.9-.8 1-1.3.3-2.6.4-3.9.4-3.1 0-4.6-.9-4.6-2.8 0-1.6 1.3-2.8 4-3.7 0-.3-.2-.5-.6-.5-1 0-2.3.8-3.8 2.2-.2.2-.5.4-.9.4-.3 0-.6-.1-.9-.4 0-.1-.2-.4-.2-.7 0-.3.1-.7.4-.9 1-.8 1.9-1.8 2.7-2.8h-1.8c-.6 0-1-.4-1-1v-.2c0-.6.4-1 1-1h2.8l.4-.8c.2-.5.6-.8 1.1-.7h.3c.6.1.9.4.9.9 0 .1 0 .3-.1.4l-.1.1c.8-.1 1.9-.2 3-.3h.2c.5 0 .9.4.9.8v.3c.1.5-.3.9-.8 1-1.5.2-3 .4-4.5.4-.1.3-.4.7-.6 1zm9.5-.5c-.5 0-.7-.4-.7-.9s.2-.9.7-.9h3.7c.4 0 .7.3.7.9s-.3.9-.7.9h-3.7zm6.2 3.7c.2-.1.4-.1.7-.1.6 0 1 .3 1 .7.1 1.8-.7 3.5-2.2 4.6-.2.1-.4.2-.7.2-.3 0-.6-.1-.8-.4-.1-.2-.2-.3-.2-.5-.2.5-.6.7-1.3.7h-1.8c-1 0-1.4-.4-1.4-1.4v-1.8c0-.9.4-1.2 1.4-1.2h1.8c1 0 1.4.4 1.4 1.2v1.9c.1-.2.2-.3.3-.4 1-.6 1.5-1.7 1.5-2.8-.2.1-.4.2-.7.1-.6 0-1-.2-1-.7v-1.1c0-1 .4-1.3 1.4-1.3h5.5c1 0 1.4.3 1.4 1.3v1.2c0 .5-.4.7-1 .7s-1-.2-1-.6v-.6c0-.2 0-.2-.3-.2h-3.8c-.3 0-.3 0-.3.2.1 0 .1.3.1.3zm-6 .3c-.4 0-.6-.3-.6-.8s.2-.8.6-.8h3.2c.4 0 .6.3.6.8s-.2.8-.6.8h-3.2zm0-2c-.4 0-.6-.3-.6-.8s.2-.8.6-.8h3.2c.4 0 .6.3.6.8s-.2.8-.6.8h-3.2zm.2-4.3c-.4 0-.6-.3-.6-.8s.2-.8.6-.8h3.1c.4 0 .6.3.6.8s-.2.8-.6.8h-3.1zm1.8 8.5c0-.2 0-.2-.2-.2h-.3c-.2 0-.2 0-.2.2v.7c0 .2.1.3.2.3h.3c.2 0 .2-.1.2-.3.1 0 0-.7 0-.7zm9.2-7c.4 0 .6.3.6.8s-.2.9-.6.9h-6.2c-.4 0-.6-.3-.6-.8s.2-.9.6-.9h2.1v-.7h-2.3c-.4 0-.7-.4-.7-.9s.2-.9.7-.9h2.3v-.3c0-.4.4-.6 1-.6s1 .2 1 .6v.3h2.5c.4 0 .7.3.7.9s-.2.9-.7.9h-2.4v.6c0 .1 2 .1 2 .1zm-3.2 5.1c0-.4.4-.7 1-.7s1 .3 1 .7v2.4c0 .2.1.2.3.2s.3-.1.4-.2c0-.2.1-.4.1-.7 0-.3.3-.5.8-.5h.1c.6.1.8.3.8.7.1.7-.1 1.4-.4 2-.3.4-.8.6-2.1.6-1.5 0-2-.4-2-1.3v-3.2zm8.5-4.7h-1.9s-1-.4-1-1.1c0-.5.3-1 .9-1h2v-.7c0-.8.2-1.1 1.1-1.1s1.2.4 1.2 1v.6c.6 0 1.2-.1 1.7-.1h.1c.5 0 .9.4.9.8v.4c.1.5-.3.9-.8 1h-.1c-.6 0-1.3.1-2 .2v1.6c.3.5.5 1 .4 1.6 0 .7-.2 1.4-.7 2-.3.3-.5.8-.6 1.3 0 .4.5.7 1.9.7.8 0 1.6-.1 2.4-.4.4-.1.8-.5.8-1s-.1-.9-.3-1.4v-.5c0-.5.4-.9.8-1.1l.4-.1c.5 0 1 .4 1.2.9.4.7.6 1.5.6 2.3.1 1.1-.5 2.1-1.5 2.6-1.3.6-2.8.9-4.2.8-2.8 0-4.1-.7-4.1-2.1 0-.2 0-.4.1-.5-1.5 0-2.2-1.1-2.2-2.6-.2-1.6 1-3.1 2.7-3.3h.2v-.8zm-.9 3.8c0 .5.2.7.6.7.6 0 .9-.5.9-1.1s-.2-.8-.6-.8-1 .4-.9 1.2zm6.4-5.2c0-.3.1-.6.3-.8.2-.3.6-.4.9-.4.3 0 .5.1.7.2.8.6 1.6 1.3 2.2 2.1.3.3.4.6.4.9 0 .3-.1.6-.3.8-.2.2-.5.4-.8.4-.3 0-.7-.2-.9-.4-.6-.7-1.3-1.4-2-1.9-.3-.3-.5-.6-.5-.9zm-87.1 3.4l-7-3c-.3-.1-.7-.1-1 .1-.3.2-.4.5-.4.9v6c0 .3.2.6.4.8.2.1.4.2.6.2.1 0 .3 0 .4-.1l7-3c.5-.2.8-.7.7-1.2-.1-.3-.4-.6-.7-.7zM27.2 10h.5c1 0 1.1 1 1.1 1.2 0 .6-.2 1-.8 1.2-1.2.4-4.5.4-4.6.4-3.7 0-6.5-.6-6.5-3.3 0-.9.5-2.6 1.7-2.6.5 0 1.1.3 1.1.9 0 .2 0 .3-.2.7 0 .1-.2.4-.2.7 0 .6.6.9 1.1 1 .6.1 1.4.2 3 .2 1.3 0 1.4 0 3.8-.4zm-8.5-8.6c.5-.2 2.4-.2 3.1-.2 1.1 0 4.5.1 5.3.6.4.2.5.7.5 1 0 .1 0 1.3-1.1 1.3h-.5c-1.1-.1-2.3-.3-3.9-.3-.5 0-2.8.1-2.9.1-1.1 0-1.1-1-1.1-1.2-.1-.4-.1-1 .6-1.3zM36.1 9.8c-.7 1.6-1.5 2.6-2.7 2.6-1.7 0-3.4-2.1-3.4-5 0-3.9 2.9-6.7 7-6.7 4.2 0 6.3 3 6.3 6 0 4.5-4 6.3-5 6.3-.9 0-1.2-.9-1.2-1.2 0-.6.3-.8 1.3-1.3 2.2-1.1 2.4-2.9 2.4-3.9 0-.7 0-3.2-3-3.8-.3 2.2-.7 4.6-1.7 7zm-2.7-5.4c-.9 1-1.2 2.3-1.2 3.2 0 1.5.6 2.4 1 2.4s.7-.9.9-1.4c.8-2.2 1.1-4.3 1.3-5.4-.7.2-1.2.4-2 1.2z"/></svg>